<?xml version="1.0" encoding="UTF-8"?><svg id="_ÎÓÈ_1" xmlns="http://www.w3.org/2000/svg" viewBox="0 0 3363.27 594.34"><defs><style>.cls-1{fill:#003649;}.cls-2{fill:#00374f;}</style></defs><path class="cls-2" d="M176.33,264.16h39.87v224.31h-39.22l.32-140.68-.32-16.21-57.05,111.83h-24.31l-57.37-111.83.32,16.21.32,140.68H0v-224.31h39.55l68.39,126.42,68.39-126.42Z"/><path class="cls-2" d="M263.2,264.16h40.19v224.31h-40.19v-224.31Z"/><path class="cls-2" d="M390.59,449.25h111.83v39.22h-152.02v-224.31h40.19v185.09Z"/><path class="cls-2" d="M573.73,449.25h111.83v39.22h-152.02v-224.31h40.19v185.09Z"/><path class="cls-2" d="M861.24,302.08h-104.37v55.75h92.71v37.6h-92.71v55.1h104.37v37.92h-144.57v-224.31h144.57v37.92Z"/><path class="cls-2" d="M925.1,378.58h59.64c14.48,0,25.55-3.08,33.22-9.24,7.67-6.16,11.51-15.4,11.51-27.71v-3.24c0-12.53-3.89-21.93-11.67-28.2-7.78-6.27-18.8-9.4-33.06-9.4h-53.48l8.43-8.75v196.43h-40.19v-224.31h85.25c27.01,0,47.92,6.54,62.72,19.61,14.8,13.08,22.2,31.07,22.2,53.97v4.21c0,14.91-3.24,27.77-9.72,38.57-6.48,10.81-16.16,19.02-29.01,24.64-12.86,5.62-28.26,8.43-46.19,8.43h-59.64v-35.01ZM971.12,390.9l40.84-.65,63.21,98.22h-45.06l-58.99-97.57Z"/><path class="cls-2" d="M1176.62,440.85c95.84-23.73,233.11-22.04,321.63,0v-49.28c8.75-9.77,6.83-17.13-8.44-22.49-44.13-13.85-97.39-21.99-151.9-22.51v-.02c-.2,0-.4,0-.6,0-.2,0-.4,0-.61,0v.02c-54.43.52-107.6,8.66-151.66,22.51-15.25,5.35-17.16,12.72-8.43,22.49v49.28ZM1486.56,400.73c.09-6.44,2.59-6.66,2.59,0v28.54c-.84-.27-1.73-.51-2.59-.77v-27.77ZM1475.34,395.84c.12-6.93,3.59-7.16,3.59,0v30.49c-1.19-.32-2.38-.64-3.59-.95v-29.54ZM1458.79,390.36c.2-7.29,6.04-7.54,6.04,0v32.53c-1.98-.43-4.01-.84-6.04-1.24v-31.29ZM1438.35,385.06c.28-7.49,8.34-7.74,8.34,0v34.34c-2.74-.46-5.53-.9-8.34-1.33v-33.01ZM1414.47,380.72c.33-7.51,9.78-7.76,9.78,0v34.93h-4.11c-1.88-.22-3.77-.43-5.67-.63v-34.3ZM1388.42,377.98c.34-8.08,10.21-8.35,10.21,0v35.54c-3.38-.28-6.79-.54-10.21-.77v-34.77ZM1361.22,375.97c.35-8.08,10.5-8.35,10.5,0v35.82c-3.49-.16-6.99-.31-10.5-.43v-35.39ZM1331.95,376c.36-8.12,10.79-8.39,10.79,0v34.93c-3.59-.05-7.19-.11-10.79-.12v-34.81ZM1302.85,375.97c0-8.35,10.15-8.08,10.5,0v35.39c-3.51.12-7.01.27-10.5.43v-35.82ZM1275.94,377.98c0-8.35,9.87-8.08,10.21,0v34.77c-3.43.23-6.83.49-10.21.77v-35.54ZM1250.33,380.72c0-7.76,9.46-7.51,9.78,0v34.3c-1.9.2-3.79.41-5.67.63h-4.11v-34.93ZM1227.88,385.06c0-7.74,8.07-7.49,8.34,0v33.01c-2.81.42-5.6.86-8.34,1.33v-34.34ZM1209.75,390.36c0-7.54,5.84-7.29,6.04,0v31.29c-2.03.41-4.06.81-6.04,1.24v-32.53ZM1195.65,395.84c0-7.16,3.47-6.93,3.59,0v29.54c-1.22.31-2.4.63-3.59.95v-30.49ZM1185.43,400.73c0-6.66,2.5-6.44,2.59,0v27.77c-.86.26-1.74.51-2.59.77v-28.54Z"/><path class="cls-2" d="M1219.91,566.07c5.03-.49,10.15-.94,15.35-1.36l.69-96.23c-5.6.59-11.04,1.23-16.28,1.92l.25,95.68ZM1224.25,504.77c0-11.65,8.35-11.27,8.63,0v49.67c-2.91.64-5.8,1.3-8.63,2v-51.67Z"/><path class="cls-2" d="M1242.6,564.15c6.19-.45,12.47-.86,18.84-1.21l.74-96.73c-6.8.48-13.45,1.03-19.91,1.64l.33,96.3ZM1247.48,500.48c0-11.26,9.79-10.9,10.12,0v49.77c-1.97.29-3.92.6-5.87.91h-4.26v-50.68Z"/><path class="cls-2" d="M1269.3,562.52c6.22-.31,12.51-.57,18.84-.78l.79-97.03c-6.76.28-13.43.63-19.99,1.04l.36,96.76ZM1273.99,498.02c0-11.78,10.22-11.4,10.57,0v49.05c-3.55.33-7.07.69-10.57,1.09v-50.14Z"/><path class="cls-2" d="M1296.54,561.48c7.02-.19,14.09-.33,21.17-.42l.43-97.18c-7.38.11-14.72.3-21.98.55l.38,97.05ZM1301.84,495.19c0-11.78,10.51-11.4,10.87,0v49.92c-3.64.17-7.26.38-10.87.61v-50.53Z"/><path class="cls-2" d="M1151.29,576.55c2.35-.54,4.76-1.07,7.23-1.59l.28-90c-3.01,1.44-5.56,2.96-7.61,4.55l.1,87.03Z"/><path class="cls-2" d="M1161.68,574.32c2.76-.55,5.57-1.09,8.46-1.6l.29-92.28c-3.24,1.04-6.21,2.14-8.88,3.28l.14,90.6Z"/><path class="cls-2" d="M1173.31,572.17c3.56-.61,7.21-1.19,10.95-1.75l.29-93.84c-4.06.95-7.87,1.95-11.38,3.01l.14,92.58ZM1180.31,519.05c0-11.97,2.59-11.59,2.68,0v49.92c-.89.47-1.8.91-2.68,1.39v-51.31Z"/><path class="cls-2" d="M1145.36,539c0,18.4.01,36.67.01,38.75v.21c.29-.07.6-.14.89-.21.87-.22,1.77-.43,2.67-.65l.2-85.79c-2.46,2.44-3.78,5.04-3.78,7.8,0-.04,0,20,.01,39.88Z"/><path class="cls-2" d="M1187.46,569.95c3.14-.45,6.33-.89,9.58-1.3l.41-94.76c-3.52.65-6.9,1.34-10.13,2.06l.14,94ZM1190.89,514.62c0-12.12,3.6-11.73,3.72,0v50c-1.26.52-2.49,1.06-3.72,1.6v-51.6Z"/><path class="cls-2" d="M1201.49,568.09c4.22-.51,8.53-1,12.92-1.46l.51-95.58c-4.72.67-9.27,1.38-13.63,2.15l.2,94.89ZM1205.48,509.81c0-11.95,6.04-11.56,6.25,0v49.59c-2.1.64-4.2,1.29-6.25,1.97v-51.56Z"/><path class="cls-2" d="M1325.31,463.79l.89,97.2c7.32-.04,14.66-.03,21.97.05l.42-97.22c-7.75-.09-15.52-.09-23.27-.02ZM1342.93,495.23v49.27c-3.72-.07-7.44-.15-11.17-.16v-49.11c.37-11.45,11.17-11.84,11.17,0Z"/><path class="cls-2" d="M1489.59,570.87c3.74.57,7.38,1.16,10.93,1.77l.15-92.34c-3.5-1.11-7.31-2.17-11.4-3.17l.32,93.74ZM1491.78,519.05c.09-11.59,2.68-11.97,2.68,0v51.31c-.87-.48-1.79-.92-2.68-1.39v-49.92Z"/><path class="cls-2" d="M1524.71,494.22l.21,83.45c.41.1.84.2,1.25.3v-78.84c0-1.7-.51-3.33-1.46-4.91Z"/><path class="cls-2" d="M1515.34,575.48c2.47.52,4.88,1.06,7.2,1.61l.11-85.51c-1.86-1.91-4.41-3.73-7.61-5.45l.3,89.35Z"/><path class="cls-2" d="M1476.83,569.08c3.25.42,6.42.86,9.55,1.32l.15-93.92c-3.23-.75-6.61-1.47-10.15-2.15l.45,94.75ZM1480.16,514.62c.12-11.73,3.72-12.12,3.72,0v51.6c-1.23-.54-2.46-1.08-3.72-1.6v-50Z"/><path class="cls-2" d="M1503.72,573.2c2.89.52,5.7,1.06,8.44,1.62l.15-90.05c-2.64-1.24-5.61-2.43-8.9-3.56l.31,92Z"/><path class="cls-2" d="M1356.62,561.14c6.92.11,13.81.27,20.66.48l.42-97.11c-7.24-.27-14.57-.47-21.94-.6l.86,97.22ZM1362.06,495.19c.36-11.4,10.87-11.78,10.87,0v50.53c-3.61-.23-7.23-.44-10.87-.61v-49.92Z"/><path class="cls-2" d="M1385.73,561.92c6.32.24,12.6.52,18.79.84l.39-96.85c-6.57-.43-13.26-.79-20.05-1.09l.86,97.11ZM1390.21,498.02c.35-11.4,10.57-11.78,10.57,0v50.14c-3.5-.39-7.02-.75-10.57-1.09v-49.05Z"/><path class="cls-2" d="M1412.43,563.2c6.36.38,12.63.8,18.79,1.27l.36-96.39c-6.47-.64-13.14-1.21-19.96-1.7l.81,96.83ZM1417.17,500.48c.34-10.9,10.12-11.26,10.12,0v50.68h-4.26c-1.94-.32-3.9-.62-5.87-.91v-49.77Z"/><path class="cls-2" d="M1459.46,567.03c4.38.47,8.68.96,12.88,1.48l.22-94.9c-4.36-.79-8.92-1.53-13.66-2.23l.56,95.65ZM1463.04,509.81c.21-11.56,6.25-11.95,6.25,0v51.56c-2.05-.68-4.15-1.33-6.25-1.97v-49.59Z"/><path class="cls-2" d="M1438.61,565.06c5.19.43,10.3.9,15.3,1.4l.27-95.74c-5.25-.72-10.7-1.39-16.32-1.99l.75,96.34ZM1441.89,504.77c.29-11.27,8.64-11.65,8.63,0v51.67c-2.84-.7-5.72-1.36-8.63-2v-49.67Z"/><path class="cls-2" d="M1242.04,231.54c-9.29,10.98-16.58,22.79-22.25,34.08-14.13,28.16-18.19,52.99-18.19,52.99,3.72-1.47,7.51-2.84,11.35-4.16-.9-27.2,11.58-58.03,29.09-82.91Z"/><path class="cls-2" d="M1305.21,296.57c-.72.05-1.44.09-2.16.15,7.25-.53,14.53-.86,21.84-1.02-2.01-28.95-.52-85.08,7.8-109.41.87-.05,1.74-.08,2.62-.12-8.06,22.15-10.34,77.28-8.02,109.47,6.65-.1,13.3-.04,19.95.17.34-53.68-1.63-88.87-6.16-109.75.82,0,1.66,0,2.47.02,4.48,21.17,6.42,56.42,6.09,109.82-.31-.01-.63-.02-.94-.03,7.23.24,14.45.65,21.63,1.25,0,0,0,0,0,0,2.41-48.07-10.03-93.22-21.13-110.79,1.01.06,2.01.13,3,.21,12.3,20.79,22.69,66.93,20.53,110.79,6.7.6,13.37,1.35,19.98,2.26,2.92-45.93-12.96-95.43-36.3-112.63,1.56.18,3.11.38,4.63.61,22.18,19.72,36.88,67.74,34.02,112.34-.24-.03-.48-.07-.72-.1,6.2.87,12.35,1.87,18.43,3-.01,0-.02,0-.04,0,3.19-46.44-18.53-98.04-48.17-114.62,2.33.43,4.62.92,6.86,1.47,27.47,20.1,46.75,69.21,43.62,113.58,0,0,0,0,0,0,5.22,1,10.38,2.11,15.49,3.31,2.8-43.41-21.88-95.87-53.42-115.35,2.9.88,5.69,1.88,8.42,2.95,28.77,23.01,50.08,71.99,47.3,112.95,4.69,1.13,9.34,2.35,13.91,3.64,0,0,0,0,0,0,3.31-45.62-25.93-95.61-56.54-114.66,4.88,2.18,9.46,4.69,13.78,7.42,26.29,23.78,48.2,67.57,45.08,107.91,3.74,1.09,7.43,2.24,11.08,3.44,1.33-38.73-25.06-85.07-54.05-110.02,6.52,4.34,12.39,9.25,17.71,14.54,22.56,26.64,40.11,64.08,38.75,96.27-.11-.04-.22-.07-.32-.11,2.98,1,5.93,2.02,8.84,3.1,0,0-3.21-24.83-16-52.99-5.33-11.73-12.31-24.04-21.44-35.38-19.97-24.82-50.14-44.98-95.37-44.19-5.33.09-10.46.47-15.39,1.09.95-.11,1.93-.19,2.89-.29-10.94,18.19-22.89,62.56-20.55,109.73ZM1318.5,273.25l-3.87,3.45-3.74-3.45v-14.15l3.74-3.86,3.87,3.86v14.15ZM1357.17,259.1l3.87-3.86,3.74,3.86v14.15l-3.74,3.45-3.87-3.45v-14.15ZM1382.73,256.29l3.92,3.66.67,14.13-3.57,3.64-4.03-3.24-.67-14.13,3.68-4.06ZM1402.84,259.49l3.69,3.59.95,14.11-3.2,3.7-3.79-3.17-.95-14.11,3.3-4.11ZM1421.21,263.43l3.47,3.45,1.58,14.05-2.65,3.8-3.53-3.03-1.58-14.05,2.71-4.22ZM1436.45,266.79l3.35,3.3,2.33,13.93-2.15,3.9-3.38-2.88-2.33-13.93,2.18-4.32ZM1447.87,270.68l2.83,3.22,3.34,13.7-1.11,3.86-2.81-2.8-3.34-13.7,1.08-4.27ZM1341.28,258.28v14.15l-3.87,3.45-3.74-3.45v-14.15l3.74-3.86,3.87,3.86Z"/><path class="cls-2" d="M1280.44,299c-2.65-43.22,11.15-89.55,32.22-110.15,1.52-.31,3.07-.6,4.63-.86-22.24,18.33-37.16,66.12-34.45,110.69,6.61-.81,13.27-1.45,19.97-1.94-2.1-43.1,7.92-88.36,19.94-109.59-5.37.68-10.51,1.64-15.43,2.88-27.61,18.53-47.3,67.33-44.49,111.66,6.04-1.07,12.15-2,18.32-2.79-.23.03-.47.06-.7.09ZM1295.95,274.47l-4.03,3.24-3.57-3.64.67-14.13,3.92-3.66,3.68,4.06-.67,14.13ZM1275.17,277.72l-3.79,3.17-3.2-3.7.95-14.11,3.69-3.59,3.3,4.11-.95,14.11Z"/><path class="cls-2" d="M1322.75,187.15s0,0,0,0c.04,0,.08,0,.12-.01-.04,0-.08,0-.12.01Z"/><path class="cls-2" d="M1215.35,313.62c4.28-1.44,8.64-2.78,13.05-4.04-.67.19-1.33.37-1.99.57-2.47-35.95,14.76-74.51,37.16-99.13,3.56-2.7,7.32-5.25,11.28-7.62-26.26,22.6-48.63,65.94-46.06,106.07,4.56-1.3,9.17-2.51,13.85-3.62-2.3-38.38,16.34-83.59,42.36-107.84,2.51-1.19,5.08-2.31,7.74-3.34-28.57,21.78-50.02,70.03-47.72,110.63,5.82-1.34,11.73-2.54,17.69-3.6-.76.13-1.52.27-2.28.41-2.76-42.37,14.8-88.88,40.34-110.27-22.72,7.03-40.43,19.76-54.19,34.53,3.55-3.8,7.37-7.45,11.45-10.93-23.96,25.92-43.51,64.78-42.7,98.17ZM1225.54,288.65l-2.81,2.8-1.11-3.86,3.34-13.7,2.83-3.22,1.08,4.27-3.34,13.7ZM1239.06,285.04l-3.38,2.88-2.15-3.9,2.33-13.93,3.35-3.3,2.18,4.32-2.33,13.93ZM1255.59,281.71l-3.53,3.03-2.65-3.8,1.58-14.05,3.47-3.45,2.71,4.22-1.58,14.05Z"/><path class="cls-2" d="M1262.83,301.69s-.07.01-.11.02c.04,0,.07-.01.11-.02h0Z"/><polygon class="cls-2" points="1430.53 306.53 1430.53 306.53 1430.53 306.53 1430.53 306.53"/><path class="cls-2" d="M1307.18,190.06s.09-.02.14-.03c0,0,0,0,0,0-.05.01-.1.03-.15.04Z"/><path class="cls-2" d="M1300.8,191.83s-.01.01-.02.02c.3-.09.6-.19.9-.28-.29.09-.59.17-.88.26Z"/><path class="cls-2" d="M1145.02,480.27c35.58-40.67,336.29-45.17,380.55,0v10.93c10.75-4.42,13.24-16.97,0-26.19-49.6-40.58-337.3-38.26-380.61,0-7.36,6.88-5.49,18.39.06,23.76v-8.5Z"/><path class="cls-2" d="M1287.98,189.57c9.55-17.61,90.25-19.56,102.13,0v4.73c2.89-1.92,3.55-7.35,0-11.34-13.31-17.57-90.52-16.56-102.14,0-1.98,2.98-1.47,7.96.02,10.29v-3.68Z"/><path class="cls-2" d="M1303.91,163.68c6.48-12.1,61.22-13.44,69.28,0v3.25c1.96-1.32,2.41-5.05,0-7.79-9.03-12.08-61.4-11.38-69.29,0-1.34,2.05-1,5.47.01,7.07v-2.53Z"/><path class="cls-2" d="M1303.91,93.37c6.48-12.1,61.22-13.44,69.28,0v3.25c1.96-1.32,2.41-5.05,0-7.79-9.03-12.08-61.4-11.38-69.29,0-1.34,2.05-1,5.47.01,7.07v-2.53Z"/><path class="cls-2" d="M1318.39,337.98v-21.83c-5.62.2-11.22.52-16.8.92v21.72c5.61-.36,11.21-.63,16.8-.82Z"/><path class="cls-2" d="M1291.49,339.61v-21.69c-5.28.5-10.52,1.09-15.72,1.78v21.44c5.24-.59,10.48-1.09,15.72-1.53Z"/><path class="cls-2" d="M1399.57,341.57v-21.35c-5.18-.72-10.42-1.36-15.72-1.91v21.63c5.24.47,10.48,1,15.72,1.63Z"/><path class="cls-2" d="M1328.93,315.89v21.92c5.84-.07,11.66-.05,17.49.06v-21.88c-5.82-.13-11.65-.18-17.49-.1Z"/><path class="cls-2" d="M1266.75,342.23v-21.24c-4.64.73-9.22,1.56-13.76,2.44v20.8c4.59-.72,9.18-1.4,13.76-2Z"/><path class="cls-2" d="M1373.75,339.09v-21.7c-5.56-.45-11.17-.79-16.8-1.04v21.77c5.61.22,11.21.57,16.8.97Z"/><path class="cls-2" d="M1422.35,344.8v-20.78c-4.51-.89-9.12-1.69-13.76-2.44v21.16c4.59.63,9.18,1.32,13.76,2.06Z"/><path class="cls-2" d="M1244.19,345.62v-20.36c-3.66.81-7.28,1.68-10.85,2.6v19.82c3.62-.7,7.24-1.43,10.85-2.05Z"/><path class="cls-2" d="M1190.6,357.69v-15.05c-2.1.96-4.2,1.92-6.23,2.93,0,.59.02,13.79.02,13.79,2.08-.6,4.14-1.1,6.22-1.67Z"/><path class="cls-2" d="M1216.42,351.22c2.82-.64,5.64-1.31,8.46-1.9v-19.17c-2.86.82-5.68,1.68-8.46,2.57v18.5Z"/><path class="cls-2" d="M1199.06,339.01c-1.9.77-3.79,1.55-5.64,2.36v15.56c1.88-.51,3.76-1.03,5.64-1.52v-16.41Z"/><path class="cls-2" d="M1210.13,352.68v-17.86c-2.28.8-4.51,1.64-6.73,2.49v16.95c2.24-.56,4.48-1.04,6.73-1.57Z"/><path class="cls-2" d="M1458.92,333.33c-2.77-.89-5.59-1.74-8.46-2.56v19.25c2.82.6,5.64,1.27,8.46,1.92v-18.61Z"/><path class="cls-2" d="M1481.92,341.96c-1.84-.81-3.73-1.59-5.64-2.36v16.58c1.88.49,3.76,1,5.64,1.51v-15.72Z"/><path class="cls-2" d="M1465.21,353.41c2.24.54,4.49,1.04,6.73,1.6v-17.11c-2.21-.84-4.44-1.67-6.73-2.46v17.96Z"/><path class="cls-2" d="M1442,348.33v-19.86c-3.56-.91-7.17-1.79-10.85-2.61v20.38c3.62.64,7.23,1.37,10.85,2.09Z"/><path class="cls-2" d="M1489.72,345.58c-1.61-.8-3.3-1.56-4.98-2.33v15.19c1.66.46,3.32.86,4.98,1.33v-14.19Z"/><path class="cls-2" d="M1219.19,319.18c80.04-14.52,158.51-14.34,235.45,0-72.56-21.7-150.72-22.88-235.45,0Z"/><path class="cls-2" d="M1535.06,594.34c-122.13-36.52-253.68-38.51-396.29,0,134.72-24.44,266.78-24.14,396.29,0Z"/><path class="cls-2" d="M1335.06,101.6v45.11h6.91v-45.11c.21-6.92-6.93-7.19-6.91,0Z"/><path class="cls-2" d="M1349.27,101.91v44.63l6.4,1.17v-43.64c.2-6.85-6.42-9.26-6.4-2.15Z"/><path class="cls-2" d="M1360.05,104.43v44.63l3.66,1.17v-43.64c.11-6.85-3.67-9.26-3.66-2.15Z"/><path class="cls-2" d="M1321.56,104.07v43.64l6.4-1.17v-44.63c.02-7.11-6.6-4.69-6.4,2.15Z"/><path class="cls-2" d="M1313.51,106.59v43.64l3.66-1.17v-44.63c.01-7.11-3.77-4.69-3.66,2.15Z"/><path class="cls-2" d="M1358.99,78.46c.08-.72.13-1.46.14-2.2.16-12.05-9.08-21.95-20.65-22.13-11.57-.17-21.07,9.45-21.24,21.5-.02,1.12.08,2.2.22,3.28,11.55-6.4,31.51-5.08,41.53-.45Z"/><path class="cls-2" d="M1337.48,34.21c-4.5,0-8.15,3.72-8.15,8.3,0,1.94.66,3.72,1.76,5.14,1.67-.61,4.56-1.31,8.21-.93,2.99-2.6,2.89-5.09,1.58-7.01-1.86-2.71-5.65-2.55-5.65-2.55,5-1.48,7.83,1.48,8.07,5.1.14,2.12-.93,3.78-1.85,4.8.77.17,1.56.37,2.39.65,1.13-1.42,1.81-3.23,1.81-5.21,0-4.59-3.65-8.3-8.15-8.3Z"/><path class="cls-2" d="M1342.94,14.08c0-3.95-2.09-6.58-2.09-6.58,5.42-2.63,0-5.26,0-5.26-3.34-5.04-3.75,0-3.75,0-2.92,1.75-4.38,2.85-3.13,4.6s5.21.22,1.46,2.85c-3.75,2.63,1.04,1.53-1.46,4.82s-2.71,7.24-.42,10.09,1.67,9.87,1.67,9.87l2.62.57c-1.21-16.65,2.86-12.97,1.7-15.97-1.17-3.04-.23-6.33-.23-6.33-.39,2.96,3.91,7.56.94,9.95-2.7,2.17-1.66,10.97-1.44,12.56l1.42.31c0-11.62.42-12.28,3.75-12.5s-1.04-5.04-1.04-8.99Z"/><path class="cls-1" d="M1767.97,317.11h-19c-.07-.33-.17-.8-.3-1.35,0,0-1.15-4.81-3.43-9.26-3.68-7.17-10.26-12.75-11.54-13.82-5.79-4.82-11.14-7.14-14.8-8.69-8.6-3.65-15.76-4.62-20.86-5.28-11.83-1.52-20.91-.39-23.03-.1-5.88.79-14.58,2.04-24.21,7.31-3.23,1.77-7.34,4.07-11.56,8.5-6.22,6.52-8.61,13.4-9.39,15.91-.58,1.89-2.51,8.63-1.38,17.39.32,2.44.79,6.02,2.67,10.28,2.86,6.47,7.09,10.28,9.88,12.75,4.68,4.13,9.02,6.23,12.94,8.1,4.82,2.29,8.97,3.63,14.43,5.14,9.56,2.64,14.59,3.46,31.22,6.92,10.91,2.27,15.58,3.34,19.76,4.35,8.12,1.96,12.27,2.98,16.7,4.54,6.4,2.27,13.06,4.63,20.25,10.08,4.16,3.15,9.56,7.33,13.24,14.82,2.23,4.55,2.87,8.35,3.46,11.86.66,3.94,2.07,12.94-1.09,23.91-3.01,10.46-8.56,17.12-10.08,18.87-7.43,8.57-15.88,12.08-22.23,14.72-7.31,3.04-13.14,4.1-19.56,5.24-13.51,2.38-24.07,2.05-31.52,1.78-8.53-.31-18.87-.76-31.91-4.25-11.55-3.09-18.72-6.84-20.35-7.71-4.7-2.5-10.57-5.68-16.6-11.86-5.76-5.89-8.76-11.55-9.88-13.83-2.56-5.21-3.51-9.51-3.73-10.54-.38-1.78-.58-3.3-.69-4.41h19.17c.14.5.35,1.22.64,2.07.71,2.12,3.31,9.37,9.83,16.68,4.61,5.17,9.13,8.06,11.84,9.77,7.07,4.45,13.27,6.32,17.79,7.65,7.43,2.18,13.31,2.78,18.06,3.24,1.85.18,8.95.82,18.27.32,3.47-.19,7.87-.44,13.62-1.53,3.03-.57,6.99-1.34,11.95-3.18,2.09-.77,5.53-2.06,9.65-4.53,1.76-1.05,4.46-2.69,7.5-5.48,2.84-2.61,4.58-4.95,4.96-5.46,2.68-3.64,4.01-6.92,4.46-8.1,1.8-4.69,2.07-8.59,2.21-10.82.16-2.56.37-6.56-.95-11.53-1.59-5.98-4.49-9.98-5.61-11.42-3.05-3.93-6.22-6.06-8.85-7.82-4.14-2.78-7.64-4.17-11.65-5.77-4.62-1.84-8.32-2.84-11.53-3.71-2.68-.72-5.39-1.31-10.71-2.45-2.47-.53-5.8-1.23-14.02-2.88-9.51-1.91-9.09-1.78-13.04-2.61-7.8-1.63-12.94-2.87-14.3-3.2-5.72-1.38-8.57-2.08-12.09-3.2-2.66-.85-6.62-2.13-11.57-4.42-3.22-1.49-6.34-2.93-10.11-5.53-5.41-3.73-8.8-7.51-9.76-8.61-2.08-2.38-5.38-6.23-7.78-12.17-1.62-3.99-2.18-7.34-2.65-10.11-.77-4.56-.81-8.11-.83-10.19-.02-2.16-.03-5.84.71-10.59.43-2.72,1.07-6.7,3.04-11.57,2.42-6,5.52-10.09,6.99-11.89,2.82-3.46,5.46-5.64,7.35-7.19,1.36-1.11,4.57-3.64,9.16-6.16,3.6-1.98,6.51-3.1,8.73-3.95.74-.28,4.13-1.57,8.93-2.84,5.14-1.37,9.12-1.98,11.65-2.37,6.86-1.04,12.15-1.26,15.33-1.38,1.35-.05,6.14-.22,12.48.04,3.69.15,8.02.32,13.63,1.11,3.97.56,9.51,1.36,16.47,3.59,7.03,2.26,11.96,4.85,13.23,5.53,2.68,1.43,6.74,3.63,11.38,7.51,5.22,4.37,8.36,8.5,9.01,9.36,2.24,3,5.73,8.33,8.06,15.72.93,2.95,1.45,5.52,1.75,7.4l.19,1.36Z"/><path class="cls-1" d="M3357.33,317.11h-19c-.07-.33-.17-.8-.3-1.35,0,0-1.15-4.81-3.43-9.26-3.68-7.17-10.26-12.75-11.54-13.82-5.79-4.82-11.14-7.14-14.8-8.69-8.6-3.65-15.76-4.62-20.86-5.28-11.83-1.52-20.91-.39-23.03-.1-5.88.79-14.58,2.04-24.21,7.31-3.23,1.77-7.34,4.07-11.56,8.5-6.22,6.52-8.61,13.4-9.39,15.91-.58,1.89-2.51,8.63-1.38,17.39.32,2.44.79,6.02,2.67,10.28,2.86,6.47,7.09,10.28,9.88,12.75,4.68,4.13,9.02,6.23,12.94,8.1,4.82,2.29,8.97,3.63,14.43,5.14,9.56,2.64,14.59,3.46,31.22,6.92,10.91,2.27,15.58,3.34,19.76,4.35,8.12,1.96,12.27,2.98,16.7,4.54,6.4,2.27,13.06,4.63,20.25,10.08,4.16,3.15,9.56,7.33,13.24,14.82,2.23,4.55,2.87,8.35,3.46,11.86.66,3.94,2.07,12.94-1.09,23.91-3.01,10.46-8.56,17.12-10.08,18.87-7.43,8.57-15.88,12.08-22.23,14.72-7.31,3.04-13.14,4.1-19.56,5.24-13.51,2.38-24.07,2.05-31.52,1.78-8.53-.31-18.87-.76-31.91-4.25-11.55-3.09-18.72-6.84-20.35-7.71-4.7-2.5-10.57-5.68-16.6-11.86-5.76-5.89-8.76-11.55-9.88-13.83-2.56-5.21-3.51-9.51-3.73-10.54-.38-1.78-.58-3.3-.69-4.41h19.17c.14.5.35,1.22.64,2.07.71,2.12,3.31,9.37,9.83,16.68,4.61,5.17,9.13,8.06,11.84,9.77,7.07,4.45,13.27,6.32,17.79,7.65,7.43,2.18,13.31,2.78,18.06,3.24,1.85.18,8.95.82,18.27.32,3.47-.19,7.87-.44,13.62-1.53,3.03-.57,6.99-1.34,11.95-3.18,2.09-.77,5.53-2.06,9.65-4.53,1.76-1.05,4.46-2.69,7.5-5.48,2.84-2.61,4.58-4.95,4.96-5.46,2.68-3.64,4.01-6.92,4.46-8.1,1.8-4.69,2.07-8.59,2.21-10.82.16-2.56.37-6.56-.95-11.53-1.59-5.98-4.49-9.98-5.61-11.42-3.05-3.93-6.22-6.06-8.85-7.82-4.14-2.78-7.64-4.17-11.65-5.77-4.62-1.84-8.32-2.84-11.53-3.71-2.68-.72-5.39-1.31-10.71-2.45-2.47-.53-5.8-1.23-14.02-2.88-9.51-1.91-9.09-1.78-13.04-2.61-7.8-1.63-12.94-2.87-14.3-3.2-5.72-1.38-8.57-2.08-12.09-3.2-2.66-.85-6.62-2.13-11.57-4.42-3.22-1.49-6.34-2.93-10.11-5.53-5.41-3.73-8.8-7.51-9.76-8.61-2.08-2.38-5.38-6.23-7.78-12.17-1.62-3.99-2.18-7.34-2.65-10.11-.77-4.56-.81-8.11-.83-10.19-.02-2.16-.03-5.84.71-10.59.43-2.72,1.07-6.7,3.04-11.57,2.42-6,5.52-10.09,6.99-11.89,2.82-3.46,5.46-5.64,7.35-7.19,1.36-1.11,4.57-3.64,9.16-6.16,3.6-1.98,6.51-3.1,8.73-3.95.74-.28,4.13-1.57,8.93-2.84,5.14-1.37,9.12-1.98,11.65-2.37,6.86-1.04,12.15-1.26,15.33-1.38,1.35-.05,6.14-.22,12.48.04,3.69.15,8.02.32,13.63,1.11,3.97.56,9.51,1.36,16.47,3.59,7.03,2.26,11.96,4.85,13.23,5.53,2.68,1.43,6.74,3.63,11.38,7.51,5.22,4.37,8.36,8.5,9.01,9.36,2.24,3,5.73,8.33,8.06,15.72.93,2.95,1.45,5.52,1.75,7.4l.19,1.36Z"/><path class="cls-2" d="M1945.7,289.16h-72.87v191.01h-17.09v-191.01h-73.16v-16.49h163.12v16.49Z"/><path class="cls-2" d="M1992.17,390.51h69.57c19.19,0,34.03-4.5,44.53-13.49s15.74-21.29,15.74-36.88-5.25-28.88-15.74-38.08c-10.5-9.19-25.34-13.79-44.53-13.79h-67.17l4.2-4.5v196.41h-17.09v-207.5h80.06c24.59,0,43.63,6.1,57.12,18.29,13.49,12.2,20.24,28.59,20.24,49.18v.3c0,12.8-3,24.09-9,33.88-6,9.8-14.84,17.44-26.54,22.94-11.7,5.5-25.64,8.25-41.83,8.25h-69.57v-14.99ZM2064.44,396.51l17.09-.9,62.07,84.56h-18.89l-60.27-83.66Z"/><path class="cls-2" d="M2348.4,480.17l-24.89-56.07h-117.24l-25.49,56.07h-18.29l93.25-207.5h17.99l92.66,207.5h-17.99ZM2211.67,408.5h105.85l-52.48-117.84-53.37,117.84Z"/><path class="cls-2" d="M2522.62,289.16h-72.87v191.01h-17.09v-191.01h-73.16v-16.49h163.12v16.49Z"/><path class="cls-2" d="M2693.83,288.86h-118.14v80.36h108.55v15.89h-108.55v78.86h118.14v16.19h-135.23v-207.5h135.23v16.19Z"/><path class="cls-2" d="M2865.95,289.91c-10.6-3.3-21.79-4.95-33.58-4.95h-1.8c-18.19,0-34.18,3.85-47.98,11.54-13.79,7.7-24.44,18.49-31.93,32.38-7.5,13.9-11.24,29.64-11.24,47.23v.3c0,17.59,3.7,33.34,11.09,47.23,7.39,13.9,17.79,24.74,31.19,32.53,13.39,7.8,28.49,11.69,45.28,11.69h1.8c12.59,0,23.69-1.9,33.28-5.7,9.6-3.8,17.09-9.09,22.49-15.89,5.4-6.79,8.4-14.89,9-24.29v-28.79h-54.27v-14.39h68.67v101.35h-10.79l-1.2-31.19c-4.8,11.39-13.1,20.04-24.89,25.94-11.8,5.89-26.29,8.85-43.48,8.85h-1.8c-20.39,0-38.43-4.5-54.12-13.49-15.7-9-27.84-21.59-36.43-37.78-8.6-16.19-12.89-34.88-12.89-56.07v-.3c0-20.99,4.45-39.58,13.34-55.77,8.89-16.19,21.49-28.79,37.78-37.78,16.29-9,35.33-13.49,57.12-13.49h1.8c8.79,0,17.34.7,25.64,2.1,8.29,1.4,16.29,3.75,23.99,7.05,7.69,3.3,14.64,7.55,20.84,12.74l-9.9,12.89c-7.4-6-16.39-10.64-26.99-13.94Z"/><path class="cls-2" d="M2953.5,272.67h17.09v207.5h-17.09v-207.5Z"/><path class="cls-2" d="M3159.2,288.86h-118.14v80.36h108.55v15.89h-108.55v78.86h118.14v16.19h-135.23v-207.5h135.23v16.19Z"/></svg>